<svg xmlns="http://www.w3.org/2000/svg" xmlns:xlink="http://www.w3.org/1999/xlink" width="500" zoomAndPan="magnify" viewBox="0 0 375 374.999991" height="500" preserveAspectRatio="xMidYMid meet" version="1.0"><defs><g/><clipPath id="343a25ce76"><path d="M 187.5 0 C 83.945312 0 0 83.945312 0 187.5 C 0 291.054688 83.945312 375 187.5 375 C 291.054688 375 375 291.054688 375 187.5 C 375 83.945312 291.054688 0 187.5 0 Z M 187.5 0 " clip-rule="nonzero"/></clipPath><clipPath id="96e222a640"><path d="M 4.390625 4.390625 L 370.390625 4.390625 L 370.390625 370.390625 L 4.390625 370.390625 Z M 4.390625 4.390625 " clip-rule="nonzero"/></clipPath><clipPath id="e5c5807112"><path d="M 187.496094 4.390625 C 86.371094 4.390625 4.390625 86.371094 4.390625 187.496094 C 4.390625 288.625 86.371094 370.601562 187.496094 370.601562 C 288.625 370.601562 370.601562 288.625 370.601562 187.496094 C 370.601562 86.371094 288.625 4.390625 187.496094 4.390625 Z M 187.496094 4.390625 " clip-rule="nonzero"/></clipPath></defs><g clip-path="url(#343a25ce76)"><rect x="-37.5" width="450" fill="#2c44cc" y="-37.499999" height="449.999989" fill-opacity="1"/></g><g clip-path="url(#96e222a640)"><g clip-path="url(#e5c5807112)"><path stroke-linecap="butt" transform="matrix(0.75, 0, 0, 0.75, 4.392525, 4.392521)" fill="none" stroke-linejoin="miter" d="M 244.138107 -0.00252799 C 109.304765 -0.00252799 -0.00253399 109.304771 -0.00253399 244.138113 C -0.00253399 378.976664 109.304765 488.278754 244.138107 488.278754 C 378.976658 488.278754 488.278748 378.976664 488.278748 244.138113 C 488.278748 109.304771 378.976658 -0.00252799 244.138107 -0.00252799 Z M 244.138107 -0.00252799 " stroke="#ffffff" stroke-width="6" stroke-opacity="1" stroke-miterlimit="4"/></g></g><g fill="#ffffff" fill-opacity="1"><g transform="translate(102.738975, 229.187649)"><g><path d="M 160.796875 -77.671875 C 160.796875 -108.46875 161.34375 -138.992188 161.34375 -169.789062 C 161.34375 -170.0625 161.34375 -170.335938 161.34375 -170.609375 C 161.34375 -170.878906 161.070312 -171.152344 160.796875 -171.152344 L 96.476562 -171.152344 C 96.207031 -171.152344 95.933594 -170.878906 95.933594 -170.609375 C 95.933594 -158.617188 96.476562 -137.085938 95.386719 -125.640625 C 95.117188 -123.460938 94.296875 -121.277344 92.390625 -120.734375 C 90.753906 -120.1875 88.847656 -121.007812 88.03125 -123.1875 C 83.394531 -135.179688 80.398438 -158.070312 76.582031 -170.878906 C 76.582031 -171.152344 76.308594 -171.152344 76.039062 -171.152344 L 7.902344 -171.425781 C 7.632812 -171.425781 7.359375 -171.152344 7.359375 -170.609375 C 7.359375 -170.609375 8.175781 -116.101562 7.902344 -90.480469 C 7.902344 -60.503906 7.085938 -30.796875 7.085938 -0.816406 C 7.085938 -0.273438 7.085938 0 7.632812 0 L 70.042969 0 C 70.316406 0 70.585938 -0.273438 70.585938 -0.546875 C 70.585938 -12.265625 69.496094 -28.890625 70.042969 -40.335938 C 70.316406 -44.96875 74.675781 -47.964844 76.855469 -44.152344 C 80.671875 -36.792969 82.035156 -22.621094 85.03125 -13.625 C 86.667969 -9.265625 88.03125 -4.90625 89.121094 -0.273438 C 89.390625 0 89.390625 0 89.664062 0 L 159.980469 0 C 160.25 0 160.523438 -0.273438 160.523438 -0.546875 C 160.25 -4.359375 160.796875 -55.871094 160.796875 -77.671875 Z M 160.796875 -77.671875 "/></g></g></g><g fill="#ffffff" fill-opacity="1"><g transform="translate(106.478235, 317.866954)"><g><path d="M 80.398438 -38.050781 C 80.523438 -51.703125 81.15625 -65.226562 81.15625 -78.878906 C 81.15625 -79.132812 81.027344 -79.386719 80.777344 -79.386719 L 46.773438 -79.386719 C 46.644531 -79.386719 46.394531 -79.257812 46.394531 -79.007812 C 45.382812 -73.191406 44.621094 -61.816406 44.496094 -59.664062 C 44.371094 -57.515625 43.992188 -57.644531 43.230469 -57.390625 C 42.472656 -57.136719 41.335938 -57.515625 41.210938 -58.527344 C 39.820312 -64.722656 39.820312 -72.054688 39.0625 -79.007812 C 38.933594 -79.257812 38.808594 -79.511719 38.554688 -79.511719 L 4.046875 -79.511719 C 3.792969 -79.511719 3.539062 -79.132812 3.664062 -78.878906 C 3.664062 -78.753906 3.664062 -78.628906 3.664062 -78.5 C 3.664062 -74.457031 3.664062 -70.410156 3.792969 -66.238281 C 3.792969 -62.445312 4.171875 -22.375 3.285156 -1.390625 L 3.285156 -0.503906 C 3.285156 -0.253906 3.414062 0 3.664062 0 L 28.316406 0 C 28.570312 0 28.820312 -0.253906 28.820312 -0.503906 C 28.695312 -6.953125 29.578125 -15.925781 29.453125 -22.25 C 29.453125 -24.523438 31.476562 -24.398438 32.109375 -22.121094 C 33.625 -15.042969 33.625 -7.332031 35.015625 -0.378906 C 35.140625 -0.125 35.269531 0 35.519531 0 L 47.402344 0 C 47.53125 0 47.78125 -0.125 47.78125 -0.378906 C 49.300781 -7.835938 50.058594 -14.285156 51.574219 -22.753906 C 51.828125 -24.523438 53.851562 -23.640625 53.851562 -21.867188 C 53.851562 -14.15625 54.355469 -7.710938 54.230469 -0.503906 C 54.230469 -0.253906 54.355469 0 54.609375 0 L 80.902344 0 C 81.15625 0 81.410156 -0.253906 81.410156 -0.503906 C 81.410156 -0.503906 80.398438 -31.097656 80.398438 -38.050781 Z M 80.398438 -38.050781 "/></g></g></g><g fill="#ffffff" fill-opacity="1"><g transform="translate(193.943589, 317.866954)"><g><path d="M 73.191406 -79.386719 L 26.671875 -79.386719 C 22.753906 -79.386719 18.835938 -77.867188 15.421875 -76.226562 C 11.125 -74.078125 8.089844 -70.410156 6.195312 -66.113281 C 2.78125 -58.65625 1.769531 -49.933594 4.550781 -42.472656 C 6.066406 -38.679688 8.722656 -35.015625 12.136719 -32.742188 C 16.6875 -29.832031 21.867188 -29.328125 27.304688 -29.578125 C 30.71875 -29.707031 40.957031 -31.222656 40.703125 -27.429688 C 40.578125 -25.535156 39.441406 -24.523438 37.796875 -24.019531 C 33.121094 -22.878906 18.960938 -22.628906 13.90625 -23.132812 C 12.894531 -23.132812 7.457031 -23.132812 4.804688 -23.386719 C 4.171875 -23.386719 3.539062 -22.878906 3.539062 -22.25 C 3.539062 -17.191406 3.917969 -12.136719 3.539062 -7.078125 C 3.285156 -5.054688 3.160156 -3.035156 3.285156 -1.011719 C 3.285156 -0.378906 3.792969 0 4.296875 0 C 4.296875 0 44.117188 -0.125 46.011719 -0.125 C 48.542969 -0.253906 54.988281 0 60.425781 -1.644531 C 64.722656 -3.035156 68.386719 -6.066406 69.777344 -8.214844 C 73.066406 -13.148438 73.824219 -18.203125 73.824219 -20.605469 C 73.824219 -36.660156 68.640625 -40.578125 65.101562 -43.613281 C 60.804688 -47.277344 55.242188 -48.035156 49.679688 -48.414062 C 44.117188 -48.667969 42.09375 -48.035156 37.542969 -48.792969 C 36.28125 -49.046875 34.003906 -49.300781 34.003906 -52.332031 C 34.003906 -55.496094 39.3125 -55.875 45.632812 -56 C 49.933594 -56.125 64.34375 -55.113281 72.8125 -54.863281 C 73.445312 -54.734375 73.949219 -55.367188 73.949219 -56 C 73.824219 -58.023438 73.316406 -62.824219 73.316406 -64.847656 C 73.445312 -73.066406 73.824219 -73.824219 73.570312 -79.132812 C 73.445312 -79.257812 73.316406 -79.257812 73.191406 -79.386719 Z M 73.191406 -79.386719 "/></g></g></g></svg>